# Rhino

g object_1
v 37.30473709106445 111.563102722168 8.083333015441895
v 48.64994430541992 111.563102722168 8.083333015441895
v 48.64994430541992 120.0922546386719 8.083333015441895
v 48.64994430541992 128.6213989257813 8.083333015441895
v 42.97734069824219 129.2826385498047 8.083333015441895
v 37.30473709106445 129.9438781738281 8.083333015441895
v 37.30473709106445 120.7534942626953 8.083333015441895
v 42.97734069824219 111.563102722168 8.083333015441895
v 37.30473709106445 129.9438781738281 8.083333015441895
v 48.64994430541992 128.6213989257813 8
v 48.64994430541992 128.6213989257813 8.083333015441895
v 37.30473709106445 129.9438781738281 8
v 42.97734069824219 129.2826385498047 8
v 42.97734069824219 129.2826385498047 8.083333015441895
v 37.30473709106445 111.563102722168 8
v 37.30473709106445 111.563102722168 8.083333015441895
v 37.30473709106445 129.9438781738281 8
v 37.30473709106445 129.9438781738281 8.083333015441895
v 37.30473709106445 120.7534942626953 8
v 37.30473709106445 120.7534942626953 8.083333015441895
v 37.30473709106445 111.563102722168 8
v 37.30473709106445 111.563102722168 8.083333015441895
v 48.64994430541992 111.563102722168 8
v 48.64994430541992 111.563102722168 8.083333015441895
v 42.97734069824219 111.563102722168 8
v 42.97734069824219 111.563102722168 8.083333015441895
v 48.64994430541992 111.563102722168 8
v 48.64994430541992 111.563102722168 8.083333015441895
v 48.64994430541992 128.6213989257813 8.083333015441895
v 48.64994430541992 120.0922546386719 8
v 48.64994430541992 120.0922546386719 8.083333015441895
v 48.64994430541992 128.6213989257813 8
v 37.30473709106445 111.563102722168 8
v 48.64994430541992 111.563102722168 8
v 48.64994430541992 120.0922546386719 8
v 48.64994430541992 128.6213989257813 8
v 42.97734069824219 129.2826385498047 8
v 37.30473709106445 129.9438781738281 8
v 37.30473709106445 120.7534942626953 8
v 42.97734069824219 111.563102722168 8
vt 0.823293924331665 0.5
vt 0.823293924331665 0.99853515625
vt 0.4480813443660736 0.99853515625
vt 0.07286875694990158 0.99853515625
vt 0.04377960041165352 0.749267578125
vt 0.01469049323350191 0.5
vt 0.4189922213554382 0.5
vt 0.823293924331665 0.749267578125
vt 0.003672623308375478 0
vt 0.007345246616750956 0.5033855438232422
vt 0.003672623308375478 0.5033855438232422
vt 0.007345246616750956 0
vt 0.007345246616750956 0.2516927719116211
vt 0.003672623308375478 0.2516927719116211
vt 0.01469049323350191 0
vt 0.01101787015795708 0
vt 0.01469049323350191 0.8100683093070984
vt 0.01101787015795708 0.8100683093070984
vt 0.01469049323350191 0.4050341546535492
vt 0.01101787015795708 0.4050341546535492
vt 0.003672623308375478 0
vt 0 0
vt 0.003672623308375478 0.5
vt 0 0.5
vt 0.003672623308375478 0.25
vt 0 0.25
vt 0.01101787015795708 0
vt 0.007345246616750956 0
vt 0.007345246616750956 0.75178462266922
vt 0.01101787015795708 0.37589231133461
vt 0.007345246616750956 0.37589231133461
vt 0.01101787015795708 0.75178462266922
vt 0.823293924331665 0
vt 0.823293924331665 0.49853515625
vt 0.4480813443660736 0.49853515625
vt 0.07286875694990158 0.49853515625
vt 0.04377960041165352 0.249267578125
vt 0.01469049323350191 0
vt 0.4189922213554382 0
vt 0.823293924331665 0.249267578125
vn 0 0 1
vn 0 0 1
vn 0 0 1
vn 0 0 1
vn 0 0 1
vn 0 0 1
vn 0 0 1
vn 0 0 1
vn 0.1157833337783814 0.9932745099067688 0
vn 0.1157833337783814 0.9932745099067688 0
vn 0.1157833337783814 0.9932745099067688 0
vn 0.1157833337783814 0.9932745099067688 0
vn 0.1157833337783814 0.9932745099067688 0
vn 0.1157833337783814 0.9932745099067688 0
vn -1 -1.110223024625157e-16 0
vn -1 -1.110223024625157e-16 0
vn -1 -1.110223024625157e-16 0
vn -1 -1.110223024625157e-16 0
vn -1 -1.110223024625157e-16 0
vn -1 -1.110223024625157e-16 0
vn 0 -1 0
vn 0 -1 0
vn 0 -1 0
vn 0 -1 0
vn 0 -1 0
vn 0 -1 0
vn 1 0 0
vn 1 0 0
vn 1 0 0
vn 1 0 0
vn 1 0 0
vn 1 0 0
vn 0 0 -1
vn 0 0 -1
vn 0 0 -1
vn 0 0 -1
vn 0 0 -1
vn 0 0 -1
vn 0 0 -1
vn 0 0 -1
f 7/7/7 1/1/1 8/8/8
f 7/7/7 5/5/5 6/6/6
f 5/5/5 7/7/7 8/8/8
f 5/5/5 8/8/8 3/3/3 4/4/4
f 2/2/2 3/3/3 8/8/8
f 9/9/9 14/14/14 13/13/13 12/12/12
f 10/10/10 13/13/13 14/14/14 11/11/11
f 16/16/16 20/20/20 19/19/19 15/15/15
f 17/17/17 19/19/19 20/20/20 18/18/18
f 22/22/22 21/21/21 25/25/25 26/26/26
f 23/23/23 24/24/24 26/26/26 25/25/25
f 31/31/31 28/28/28 27/27/27 30/30/30
f 30/30/30 32/32/32 29/29/29 31/31/31
f 39/39/39 40/40/40 33/33/33
f 39/39/39 38/38/38 37/37/37
f 37/37/37 40/40/40 39/39/39
f 37/37/37 36/36/36 35/35/35 40/40/40
f 34/34/34 40/40/40 35/35/35
g object_2
v 37.30473709106445 101.9359588623047 9
v 37.30473709106445 101.9359588623047 9.083333015441895
v 41.38634872436523 101.9359588623047 9
v 41.38634872436523 101.9359588623047 9.083333015441895
v 41.38634872436523 101.9359588623047 9
v 41.38634872436523 101.9359588623047 9.083333015441895
v 41.38634872436523 110.9276885986328 9
v 41.38634872436523 110.9276885986328 9.083333015441895
v 41.38634872436523 110.9276885986328 9
v 41.38634872436523 110.9276885986328 9.083333015441895
v 37.30473709106445 110.9276885986328 9
v 37.30473709106445 110.9276885986328 9.083333015441895
v 37.30473709106445 110.9276885986328 9
v 37.30473709106445 110.9276885986328 9.083333015441895
v 37.30473709106445 101.9359588623047 9
v 37.30473709106445 101.9359588623047 9.083333015441895
v 37.30473709106445 101.9359588623047 9
v 41.38634872436523 101.9359588623047 9
v 41.38634872436523 110.9276885986328 9
v 37.30473709106445 110.9276885986328 9
v 37.30473709106445 101.9359588623047 9.083333015441895
v 41.38634872436523 101.9359588623047 9.083333015441895
v 41.38634872436523 110.9276885986328 9.083333015441895
v 37.30473709106445 110.9276885986328 9.083333015441895
vt 0 0
vt 0 0.505052387714386
vt 0.1561043411493301 0
vt 0.1561043411493301 0.505052387714386
vt 0.1561043411493301 0
vt 0.1561043411493301 0.505052387714386
vt 0.5 0
vt 0.5 0.505052387714386
vt 0.5 0
vt 0.5 0.505052387714386
vt 0.656104326248169 0
vt 0.656104326248169 0.505052387714386
vt 0.656104326248169 0
vt 0.656104326248169 0.505052387714386
vt 1 0
vt 1 0.505052387714386
vt 0.3438956737518311 1
vt 0.3438956737518311 0.5050528645515442
vt 0 0.5050528645515442
vt 0 1
vt 1 0.5050528645515442
vt 1 1
vt 0.656104326248169 1
vt 0.656104326248169 0.5050528645515442
vn 0 -1 0
vn 0 -1 0
vn 0 -1 0
vn 0 -1 0
vn 1 0 0
vn 1 0 0
vn 1 0 0
vn 1 0 0
vn 0 1 0
vn 0 1 0
vn 0 1 0
vn 0 1 0
vn -1 0 0
vn -1 0 0
vn -1 0 0
vn -1 0 0
vn 0 0 -1
vn 0 0 -1
vn 0 0 -1
vn 0 0 -1
vn 0 0 1
vn 0 0 1
vn 0 0 1
vn 0 0 1
f 41/41/41 43/43/43 44/44/44 42/42/42
f 45/45/45 47/47/47 48/48/48 46/46/46
f 49/49/49 51/51/51 52/52/52 50/50/50
f 53/53/53 55/55/55 56/56/56 54/54/54
f 58/58/58 57/57/57 60/60/60
f 60/60/60 59/59/59 58/58/58
f 62/62/62 64/64/64 61/61/61
f 64/64/64 62/62/62 63/63/63
