# Rhino

g object_1
v 37.30473709106445 101.9359588623047 9
v 37.30473709106445 101.9359588623047 9.083333015441895
v 41.38634872436523 101.9359588623047 9
v 41.38634872436523 101.9359588623047 9.083333015441895
v 41.38634872436523 101.9359588623047 9
v 41.38634872436523 101.9359588623047 9.083333015441895
v 41.38634872436523 110.9276885986328 9
v 41.38634872436523 110.9276885986328 9.083333015441895
v 41.38634872436523 110.9276885986328 9
v 41.38634872436523 110.9276885986328 9.083333015441895
v 37.30473709106445 110.9276885986328 9
v 37.30473709106445 110.9276885986328 9.083333015441895
v 37.30473709106445 110.9276885986328 9
v 37.30473709106445 110.9276885986328 9.083333015441895
v 37.30473709106445 101.9359588623047 9
v 37.30473709106445 101.9359588623047 9.083333015441895
v 37.30473709106445 101.9359588623047 9
v 41.38634872436523 101.9359588623047 9
v 41.38634872436523 110.9276885986328 9
v 37.30473709106445 110.9276885986328 9
v 37.30473709106445 101.9359588623047 9.083333015441895
v 41.38634872436523 101.9359588623047 9.083333015441895
v 41.38634872436523 110.9276885986328 9.083333015441895
v 37.30473709106445 110.9276885986328 9.083333015441895
vt 0 0
vt 0 0.505052387714386
vt 0.1561043411493301 0
vt 0.1561043411493301 0.505052387714386
vt 0.1561043411493301 0
vt 0.1561043411493301 0.505052387714386
vt 0.5 0
vt 0.5 0.505052387714386
vt 0.5 0
vt 0.5 0.505052387714386
vt 0.656104326248169 0
vt 0.656104326248169 0.505052387714386
vt 0.656104326248169 0
vt 0.656104326248169 0.505052387714386
vt 1 0
vt 1 0.505052387714386
vt 0.3438956737518311 1
vt 0.3438956737518311 0.5050528645515442
vt 0 0.5050528645515442
vt 0 1
vt 1 0.5050528645515442
vt 1 1
vt 0.656104326248169 1
vt 0.656104326248169 0.5050528645515442
vn 0 -1 0
vn 0 -1 0
vn 0 -1 0
vn 0 -1 0
vn 1 0 0
vn 1 0 0
vn 1 0 0
vn 1 0 0
vn 0 1 0
vn 0 1 0
vn 0 1 0
vn 0 1 0
vn -1 0 0
vn -1 0 0
vn -1 0 0
vn -1 0 0
vn 0 0 -1
vn 0 0 -1
vn 0 0 -1
vn 0 0 -1
vn 0 0 1
vn 0 0 1
vn 0 0 1
vn 0 0 1
f 1/1/1 3/3/3 4/4/4 2/2/2
f 5/5/5 7/7/7 8/8/8 6/6/6
f 9/9/9 11/11/11 12/12/12 10/10/10
f 13/13/13 15/15/15 16/16/16 14/14/14
f 18/18/18 17/17/17 20/20/20
f 20/20/20 19/19/19 18/18/18
f 22/22/22 24/24/24 21/21/21
f 24/24/24 22/22/22 23/23/23
g object_2
v 37.30473709106445 111.563102722168 8.083333015441895
v 48.64994430541992 111.563102722168 8.083333015441895
v 48.64994430541992 120.0922546386719 8.083333015441895
v 48.64994430541992 128.6213989257813 8.083333015441895
v 42.97734069824219 129.2826385498047 8.083333015441895
v 37.30473709106445 129.9438781738281 8.083333015441895
v 37.30473709106445 120.7534942626953 8.083333015441895
v 42.97734069824219 111.563102722168 8.083333015441895
v 37.30473709106445 129.9438781738281 8.083333015441895
v 48.64994430541992 128.6213989257813 8
v 48.64994430541992 128.6213989257813 8.083333015441895
v 37.30473709106445 129.9438781738281 8
v 42.97734069824219 129.2826385498047 8
v 42.97734069824219 129.2826385498047 8.083333015441895
v 37.30473709106445 111.563102722168 8
v 37.30473709106445 111.563102722168 8.083333015441895
v 37.30473709106445 129.9438781738281 8
v 37.30473709106445 129.9438781738281 8.083333015441895
v 37.30473709106445 120.7534942626953 8
v 37.30473709106445 120.7534942626953 8.083333015441895
v 37.30473709106445 111.563102722168 8
v 37.30473709106445 111.563102722168 8.083333015441895
v 48.64994430541992 111.563102722168 8
v 48.64994430541992 111.563102722168 8.083333015441895
v 42.97734069824219 111.563102722168 8
v 42.97734069824219 111.563102722168 8.083333015441895
v 48.64994430541992 111.563102722168 8
v 48.64994430541992 111.563102722168 8.083333015441895
v 48.64994430541992 128.6213989257813 8.083333015441895
v 48.64994430541992 120.0922546386719 8
v 48.64994430541992 120.0922546386719 8.083333015441895
v 48.64994430541992 128.6213989257813 8
v 37.30473709106445 111.563102722168 8
v 48.64994430541992 111.563102722168 8
v 48.64994430541992 120.0922546386719 8
v 48.64994430541992 128.6213989257813 8
v 42.97734069824219 129.2826385498047 8
v 37.30473709106445 129.9438781738281 8
v 37.30473709106445 120.7534942626953 8
v 42.97734069824219 111.563102722168 8
vt 0.823293924331665 0.5
vt 0.823293924331665 0.99853515625
vt 0.4480813443660736 0.99853515625
vt 0.07286875694990158 0.99853515625
vt 0.04377960041165352 0.749267578125
vt 0.01469049323350191 0.5
vt 0.4189922213554382 0.5
vt 0.823293924331665 0.749267578125
vt 0.003672623308375478 0
vt 0.007345246616750956 0.5033855438232422
vt 0.003672623308375478 0.5033855438232422
vt 0.007345246616750956 0
vt 0.007345246616750956 0.2516927719116211
vt 0.003672623308375478 0.2516927719116211
vt 0.01469049323350191 0
vt 0.01101787015795708 0
vt 0.01469049323350191 0.8100683093070984
vt 0.01101787015795708 0.8100683093070984
vt 0.01469049323350191 0.4050341546535492
vt 0.01101787015795708 0.4050341546535492
vt 0.003672623308375478 0
vt 0 0
vt 0.003672623308375478 0.5
vt 0 0.5
vt 0.003672623308375478 0.25
vt 0 0.25
vt 0.01101787015795708 0
vt 0.007345246616750956 0
vt 0.007345246616750956 0.75178462266922
vt 0.01101787015795708 0.37589231133461
vt 0.007345246616750956 0.37589231133461
vt 0.01101787015795708 0.75178462266922
vt 0.823293924331665 0
vt 0.823293924331665 0.49853515625
vt 0.4480813443660736 0.49853515625
vt 0.07286875694990158 0.49853515625
vt 0.04377960041165352 0.249267578125
vt 0.01469049323350191 0
vt 0.4189922213554382 0
vt 0.823293924331665 0.249267578125
vn 0 0 1
vn 0 0 1
vn 0 0 1
vn 0 0 1
vn 0 0 1
vn 0 0 1
vn 0 0 1
vn 0 0 1
vn 0.1157833337783814 0.9932745099067688 0
vn 0.1157833337783814 0.9932745099067688 0
vn 0.1157833337783814 0.9932745099067688 0
vn 0.1157833337783814 0.9932745099067688 0
vn 0.1157833337783814 0.9932745099067688 0
vn 0.1157833337783814 0.9932745099067688 0
vn -1 -1.110223024625157e-16 0
vn -1 -1.110223024625157e-16 0
vn -1 -1.110223024625157e-16 0
vn -1 -1.110223024625157e-16 0
vn -1 -1.110223024625157e-16 0
vn -1 -1.110223024625157e-16 0
vn 0 -1 0
vn 0 -1 0
vn 0 -1 0
vn 0 -1 0
vn 0 -1 0
vn 0 -1 0
vn 1 0 0
vn 1 0 0
vn 1 0 0
vn 1 0 0
vn 1 0 0
vn 1 0 0
vn 0 0 -1
vn 0 0 -1
vn 0 0 -1
vn 0 0 -1
vn 0 0 -1
vn 0 0 -1
vn 0 0 -1
vn 0 0 -1
f 31/31/31 25/25/25 32/32/32
f 31/31/31 29/29/29 30/30/30
f 29/29/29 31/31/31 32/32/32
f 29/29/29 32/32/32 27/27/27 28/28/28
f 26/26/26 27/27/27 32/32/32
f 33/33/33 38/38/38 37/37/37 36/36/36
f 34/34/34 37/37/37 38/38/38 35/35/35
f 40/40/40 44/44/44 43/43/43 39/39/39
f 41/41/41 43/43/43 44/44/44 42/42/42
f 46/46/46 45/45/45 49/49/49 50/50/50
f 47/47/47 48/48/48 50/50/50 49/49/49
f 55/55/55 52/52/52 51/51/51 54/54/54
f 54/54/54 56/56/56 53/53/53 55/55/55
f 63/63/63 64/64/64 57/57/57
f 63/63/63 62/62/62 61/61/61
f 61/61/61 64/64/64 63/63/63
f 61/61/61 60/60/60 59/59/59 64/64/64
f 58/58/58 64/64/64 59/59/59
