# Rhino

g object_1
v 110.55615234375 121.426139831543 13.22916698455811
v 110.5754470825195 121.591682434082 13.22916698455811
v 110.55615234375 121.426139831543 3.234106316085672e-10
v 110.5754470825195 121.591682434082 3.234106316085672e-10
v 110.55615234375 121.426139831543 3.234106316085672e-10
v 110.5754470825195 121.591682434082 3.234106316085672e-10
v 99.38181304931641 122.7286987304688 -3.078817201185302e-10
v 99.40110778808594 122.8942489624023 -3.078817201185302e-10
v 99.38181304931641 122.7286987304688 -3.078817201185302e-10
v 99.40110778808594 122.8942489624023 -3.078817201185302e-10
v 99.38181304931641 122.7286987304688 13.22916698455811
v 99.40110778808594 122.8942489624023 13.22916698455811
v 99.38181304931641 122.7286987304688 13.22916698455811
v 99.40110778808594 122.8942489624023 13.22916698455811
v 110.55615234375 121.426139831543 13.22916698455811
v 110.5754470825195 121.591682434082 13.22916698455811
v 110.55615234375 121.426139831543 13.22916698455811
v 110.55615234375 121.426139831543 3.234106316085672e-10
v 99.38181304931641 122.7286987304688 -3.078817201185302e-10
v 99.38181304931641 122.7286987304688 13.22916698455811
v 110.5754470825195 121.591682434082 13.22916698455811
v 110.5754470825195 121.591682434082 3.234106316085672e-10
v 99.40110778808594 122.8942489624023 -3.078817201185302e-10
v 99.40110778808594 122.8942489624023 13.22916698455811
vt 0 0
vt 0 0.5036762356758118
vt 0.2437070906162262 0
vt 0.2437070906162262 0.5036762356758118
vt 0.2437070906162262 0
vt 0.2437070906162262 0.5036762356758118
vt 0.5 0
vt 0.5 0.5036762356758118
vt 0.5 0
vt 0.5 0.5036762356758118
vt 0.7437071204185486 0
vt 0.7437071204185486 0.5036762356758118
vt 0.7437071204185486 0
vt 0.7437071204185486 0.5036762356758118
vt 1 0
vt 1 0.5036762356758118
vt 0.2702127695083618 0.50367671251297
vt 1.289495680373287e-11 0.50367671251297
vt 0 1
vt 0.2702127695083618 1
vt 1 1
vt 0.7297872304916382 1
vt 0.7297872304916382 0.50367671251297
vt 1 0.50367671251297
vn 0.9932745099067688 -0.1157833337783814 -2.120974735089504e-15
vn 0.9932745099067688 -0.1157833337783814 -2.120974735089504e-15
vn 0.9932745099067688 -0.1157833337783814 -2.120974735089504e-15
vn 0.9932745099067688 -0.1157833337783814 -2.120974735089504e-15
vn 5.573740774478253e-11 -6.497159581175804e-12 -1
vn 5.573740774478253e-11 -6.497159581175804e-12 -1
vn 5.573740774478253e-11 -6.497159581175804e-12 -1
vn 5.573740774478253e-11 -6.497159581175804e-12 -1
vn -0.9932745099067688 0.1157833337783814 2.120974735089504e-15
vn -0.9932745099067688 0.1157833337783814 2.120974735089504e-15
vn -0.9932745099067688 0.1157833337783814 2.120974735089504e-15
vn -0.9932745099067688 0.1157833337783814 2.120974735089504e-15
vn -5.573760550325879e-11 6.497182566261861e-12 1
vn -5.573760550325879e-11 6.497182566261861e-12 1
vn -5.573760550325879e-11 6.497182566261861e-12 1
vn -5.573760550325879e-11 6.497182566261861e-12 1
vn -0.1157833337783814 -0.9932745099067688 0
vn -0.1157833337783814 -0.9932745099067688 0
vn -0.1157833337783814 -0.9932745099067688 0
vn -0.1157833337783814 -0.9932745099067688 0
vn 0.1157833337783814 0.9932745099067688 0
vn 0.1157833337783814 0.9932745099067688 0
vn 0.1157833337783814 0.9932745099067688 0
vn 0.1157833337783814 0.9932745099067688 0
f 1/1/1 3/3/3 4/4/4 2/2/2
f 5/5/5 7/7/7 8/8/8 6/6/6
f 9/9/9 11/11/11 12/12/12 10/10/10
f 13/13/13 15/15/15 16/16/16 14/14/14
f 18/18/18 20/20/20 19/19/19
f 20/20/20 18/18/18 17/17/17
f 22/22/22 23/23/23 24/24/24
f 24/24/24 21/21/21 22/22/22
g object_2
v 135.1328430175781 120.0504837036133 13.2708330154419
v 135.1135406494141 119.8849411010742 13.2708330154419
v 121.2269973754883 121.6714477539063 13.2708330154419
v 121.2076950073242 121.5059051513672 13.2708330154419
v 121.2269973754883 121.6714477539063 13.2708330154419
v 121.2076950073242 121.5059051513672 13.2708330154419
v 121.2269973754883 121.6714477539063 -2.635474061207788e-10
v 121.2076950073242 121.5059051513672 -2.635474061207788e-10
v 121.2269973754883 121.6714477539063 -2.635474061207788e-10
v 121.2076950073242 121.5059051513672 -2.635474061207788e-10
v 135.1328430175781 120.0504837036133 3.697273598390893e-10
v 135.1135406494141 119.8849411010742 3.697273598390893e-10
v 135.1328430175781 120.0504837036133 3.697273598390893e-10
v 135.1135406494141 119.8849411010742 3.697273598390893e-10
v 135.1328430175781 120.0504837036133 13.2708330154419
v 135.1135406494141 119.8849411010742 13.2708330154419
v 135.1328430175781 120.0504837036133 13.2708330154419
v 121.2269973754883 121.6714477539063 13.2708330154419
v 121.2269973754883 121.6714477539063 -2.635474061207788e-10
v 135.1328430175781 120.0504837036133 3.697273598390893e-10
v 135.1135406494141 119.8849411010742 13.2708330154419
v 121.2076950073242 121.5059051513672 13.2708330154419
v 121.2076950073242 121.5059051513672 -2.635474061207788e-10
v 135.1135406494141 119.8849411010742 3.697273598390893e-10
vt 0 0
vt 0 0.5031198859214783
vt 0.2562929093837738 0
vt 0.2562929093837738 0.5031198859214783
vt 0.2562929093837738 0
vt 0.2562929093837738 0.5031198859214783
vt 0.5 0
vt 0.5 0.5031198859214783
vt 0.5 0
vt 0.5 0.5031198859214783
vt 0.7562928795814514 0
vt 0.7562928795814514 0.5031198859214783
vt 0.7562928795814514 0
vt 0.7562928795814514 0.5031198859214783
vt 1 0
vt 1 0.5031198859214783
vt 0 1
vt 0.2566844820976257 1
vt 0.2566844820976257 0.5031203627586365
vt 0 0.5031203627586365
vt 0.7433155179023743 0.5031203627586365
vt 1 0.5031203627586365
vt 1 1
vt 0.7433155179023743 1
vn -4.492980640313782e-11 5.237346580727609e-12 1
vn -4.492980640313782e-11 5.237346580727609e-12 1
vn -4.492980640313782e-11 5.237346580727609e-12 1
vn -4.492980640313782e-11 5.237346580727609e-12 1
vn -0.9932745099067688 0.1157833337783814 2.120974735089504e-15
vn -0.9932745099067688 0.1157833337783814 2.120974735089504e-15
vn -0.9932745099067688 0.1157833337783814 2.120974735089504e-15
vn -0.9932745099067688 0.1157833337783814 2.120974735089504e-15
vn 4.492972660585792e-11 -5.23733747342936e-12 -1
vn 4.492972660585792e-11 -5.23733747342936e-12 -1
vn 4.492972660585792e-11 -5.23733747342936e-12 -1
vn 4.492972660585792e-11 -5.23733747342936e-12 -1
vn 0.9932745099067688 -0.1157833337783814 -2.120974735089504e-15
vn 0.9932745099067688 -0.1157833337783814 -2.120974735089504e-15
vn 0.9932745099067688 -0.1157833337783814 -2.120974735089504e-15
vn 0.9932745099067688 -0.1157833337783814 -2.120974735089504e-15
vn 0.1157833337783814 0.9932745099067688 0
vn 0.1157833337783814 0.9932745099067688 0
vn 0.1157833337783814 0.9932745099067688 0
vn 0.1157833337783814 0.9932745099067688 0
vn -0.1157833337783814 -0.9932745099067688 0
vn -0.1157833337783814 -0.9932745099067688 0
vn -0.1157833337783814 -0.9932745099067688 0
vn -0.1157833337783814 -0.9932745099067688 0
f 25/25/25 27/27/27 28/28/28 26/26/26
f 29/29/29 31/31/31 32/32/32 30/30/30
f 33/33/33 35/35/35 36/36/36 34/34/34
f 37/37/37 39/39/39 40/40/40 38/38/38
f 42/42/42 41/41/41 44/44/44
f 44/44/44 43/43/43 42/42/42
f 46/46/46 48/48/48 45/45/45
f 48/48/48 46/46/46 47/47/47
