# Rhino

g object_1
v 123.7735443115234 115.8103408813477 7.495002746582031
v 123.9314193725586 117.1620254516602 7.750154972076416
v 124.0892868041992 118.5137176513672 8.005308151245117
v 127.5389022827148 115.3705978393555 7.49484920501709
v 127.6967697143555 116.7222900390625 7.750001907348633
v 127.8546371459961 118.073974609375 8.005154609680176
v 131.3042449951172 114.9308547973633 7.494695663452148
v 131.4621124267578 116.2825469970703 7.749848365783691
v 131.6199951171875 117.6342391967773 8.005001068115234
v 120.0053634643555 114.9340133666992 7.250003337860107
v 120.088134765625 114.9243469238281 7.25
v 134.6875 113.2193450927734 7.249404907226563
v 134.770263671875 113.2096786499023 7.249401569366455
v 135.3881683349609 118.5105590820313 8.25
v 135.3054046630859 118.5202102661133 8.25
v 120.7056732177734 120.2220611572266 8.25
v 120.6229019165039 120.2317123413086 8.25
v 135.0792236328125 115.8601226806641 7.749701023101807
v 131.3042449951172 114.9308547973633 7.244695663452148
v 131.4621124267578 116.2825469970703 7.499848365783691
v 131.6199951171875 117.6342391967773 7.755000591278076
v 127.5389022827148 115.3705978393555 7.24484920501709
v 127.6967697143555 116.7222900390625 7.500001907348633
v 127.8546371459961 118.073974609375 7.755154132843018
v 123.7735443115234 115.8103408813477 7.245002746582031
v 123.9314193725586 117.1620254516602 7.500154972076416
v 124.0892868041992 118.5137176513672 7.755307674407959
v 134.770263671875 113.2096786499023 6.999401569366455
v 134.6875 113.2193450927734 6.999404907226563
v 120.088134765625 114.9243469238281 7
v 120.0053634643555 114.9340133666992 7.000003337860107
v 135.3881683349609 118.5105590820313 8
v 135.0792236328125 115.8601226806641 7.499701023101807
v 120.6229019165039 120.2317123413086 8
v 120.7056732177734 120.2220611572266 8
v 135.3054046630859 118.5202102661133 8
v 120.6229019165039 120.2317123413086 8.25
v 120.7056732177734 120.2220611572266 8.25
v 135.3054046630859 118.5202102661133 8.25
v 135.3881683349609 118.5105590820313 8.25
v 120.6229019165039 120.2317123413086 8
v 120.7056732177734 120.2220611572266 8
v 135.3054046630859 118.5202102661133 8
v 135.3881683349609 118.5105590820313 8
v 135.3881683349609 118.5105590820313 8.25
v 135.0792236328125 115.8601226806641 7.749701023101807
v 134.770263671875 113.2096786499023 7.249401569366455
v 135.3881683349609 118.5105590820313 8
v 135.0792236328125 115.8601226806641 7.499701023101807
v 134.770263671875 113.2096786499023 6.999401569366455
v 134.770263671875 113.2096786499023 7.249401569366455
v 134.6875 113.2193450927734 7.249404907226563
v 120.088134765625 114.9243469238281 7.25
v 120.0053634643555 114.9340133666992 7.250003337860107
v 134.770263671875 113.2096786499023 6.999401569366455
v 134.6875 113.2193450927734 6.999404907226563
v 120.088134765625 114.9243469238281 7
v 120.0053634643555 114.9340133666992 7.000003337860107
v 120.0053634643555 114.9340133666992 7.250003337860107
v 120.6229019165039 120.2317123413086 8.25
v 120.0053634643555 114.9340133666992 7.000003337860107
v 120.6229019165039 120.2317123413086 8
vt 0.2735743820667267 0.58339923620224
vt 0.2735743820667267 0.6717937588691711
vt 0.2735743820667267 0.7601882815361023
vt 0.5152279734611511 0.58339923620224
vt 0.5152279734611511 0.6717937588691711
vt 0.5152279734611511 0.7601882815361023
vt 0.756881594657898 0.58339923620224
vt 0.756881594657898 0.6717937588691711
vt 0.756881594657898 0.7601882815361023
vt 0.0414733923971653 0.4984711706638336
vt 0.04678547754883766 0.4984711706638336
vt 0.9837464690208435 0.4984711706638336
vt 0.9890584945678711 0.4984711706638336
vt 0.9889824986457825 0.8451163172721863
vt 0.9836704730987549 0.8451151847839356
vt 0.04670948535203934 0.8449090719223023
vt 0.04139740392565727 0.8449078798294067
vt 0.9890205264091492 0.6717937588691711
vt 0.2735743820667267 0.1293828189373016
vt 0.2735743820667267 0.2177773416042328
vt 0.2735743820667267 0.3061718642711639
vt 0.5152279734611511 0.1293828189373016
vt 0.5152279734611511 0.2177773416042328
vt 0.5152279734611511 0.3061718642711639
vt 0.756881594657898 0.1293828189373016
vt 0.756881594657898 0.2177773416042328
vt 0.756881594657898 0.3061718642711639
vt 0.04139740392565727 0.04445475339889526
vt 0.04670948535203934 0.04445475339889526
vt 0.9836704730987549 0.04445475339889526
vt 0.9889825582504273 0.04445475339889526
vt 0.04147344082593918 0.3910999000072479
vt 0.04143542051315308 0.2177773416042328
vt 0.9890584945678711 0.390891432762146
vt 0.9837464690208435 0.3908926248550415
vt 0.04678552225232124 0.3910987377166748
vt 0 0
vt 0 0.005311920307576656
vt 0 0.9422443509101868
vt 0 0.9475563168525696
vt 0.0144955525174737 0
vt 0.0144955525174737 0.005311920307576656
vt 0.0144955525174737 0.9422443509101868
vt 0.0144955525174737 0.9475563168525696
vt 0.3785659670829773 0.02049414999783039
vt 0.2052433788776398 0.02049414999783039
vt 0.03192079067230225 0.02049414999783039
vt 0.3785659670829773 0.03645454719662666
vt 0.2052433788776398 0.03645454719662666
vt 0.03192079067230225 0.03645454719662666
vt 0.01596039533615112 0
vt 0.01596039533615112 0.005311920307576656
vt 0.01596039533615112 0.9422443509101868
vt 0.01596039533615112 0.9475563168525696
vt 0.0304559487849474 0
vt 0.0304559487849474 0.005311920307576656
vt 0.0304559487849474 0.9422443509101868
vt 0.0304559487849474 0.9475563168525696
vt 0.378357470035553 0
vt 0.03192079067230225 0
vt 0.378357470035553 0.01596039533615112
vt 0.03192079067230225 0.01596039533615112
vn -0.02133655734360218 -0.183040663599968 0.982873797416687
vn -0.02133655734360218 -0.183040663599968 0.982873797416687
vn -0.02133655734360218 -0.183040663599968 0.982873797416687
vn -0.02133655734360218 -0.183040663599968 0.982873797416687
vn -0.02133655734360218 -0.183040663599968 0.982873797416687
vn -0.02133655734360218 -0.183040663599968 0.982873797416687
vn -0.02133655734360218 -0.183040663599968 0.982873797416687
vn -0.02133655734360218 -0.183040663599968 0.982873797416687
vn -0.02133655734360218 -0.183040663599968 0.982873797416687
vn -0.02133655734360218 -0.183040663599968 0.982873797416687
vn -0.02133655734360218 -0.183040663599968 0.982873797416687
vn -0.02133655734360218 -0.183040663599968 0.982873797416687
vn -0.02133655734360218 -0.183040663599968 0.982873797416687
vn -0.02133655734360218 -0.183040663599968 0.982873797416687
vn -0.02133655734360218 -0.183040663599968 0.982873797416687
vn -0.02133655734360218 -0.183040663599968 0.982873797416687
vn -0.02133655734360218 -0.183040663599968 0.982873797416687
vn -0.02133655734360218 -0.183040663599968 0.982873797416687
vn 0.02133655734360218 0.183040663599968 -0.982873797416687
vn 0.02133655734360218 0.183040663599968 -0.982873797416687
vn 0.02133655734360218 0.183040663599968 -0.982873797416687
vn 0.02133655734360218 0.183040663599968 -0.982873797416687
vn 0.02133655734360218 0.183040663599968 -0.982873797416687
vn 0.02133655734360218 0.183040663599968 -0.982873797416687
vn 0.02133655734360218 0.183040663599968 -0.982873797416687
vn 0.02133655734360218 0.183040663599968 -0.982873797416687
vn 0.02133655734360218 0.183040663599968 -0.982873797416687
vn 0.02133655734360218 0.183040663599968 -0.982873797416687
vn 0.02133655734360218 0.183040663599968 -0.982873797416687
vn 0.02133655734360218 0.183040663599968 -0.982873797416687
vn 0.02133655734360218 0.183040663599968 -0.982873797416687
vn 0.02133655734360218 0.183040663599968 -0.982873797416687
vn 0.02133655734360218 0.183040663599968 -0.982873797416687
vn 0.02133655734360218 0.183040663599968 -0.982873797416687
vn 0.02133655734360218 0.183040663599968 -0.982873797416687
vn 0.02133655734360218 0.183040663599968 -0.982873797416687
vn 0.1157833337783814 0.9932745099067688 -1.234312541065208e-09
vn 0.1157833337783814 0.9932745099067688 -1.234538360428417e-09
vn 0.1157833337783814 0.9932745099067688 -1.234764179791625e-09
vn 0.1157833337783814 0.9932745099067688 -1.234764179791625e-09
vn 0.1157833337783814 0.9932745099067688 -1.234538360428417e-09
vn 0.1157833337783814 0.9932745099067688 -1.234512048142733e-09
vn 0.1157833337783814 0.9932745099067688 -1.2345646727141e-09
vn 0.1157833337783814 0.9932745099067688 -1.2345646727141e-09
vn 0.9932745099067688 -0.1157833337783814 -5.328462687357802e-14
vn 0.9932745099067688 -0.1157833337783814 -1.412670571883726e-13
vn 0.9932745099067688 -0.1157833337783814 -7.961070902983911e-14
vn 0.9932745099067688 -0.1157833337783814 -3.054551782951526e-13
vn 0.9932745099067688 -0.1157833337783814 8.371728908251972e-15
vn 0.9932745099067688 -0.1157833337783814 -2.791290961388915e-13
vn -0.1159977987408638 -0.9932494759559631 1.234538360428417e-09
vn -0.1159977987408638 -0.9932494759559631 1.234790492077309e-09
vn -0.1159977987408638 -0.9932494759559631 1.234538360428417e-09
vn -0.1159977987408638 -0.9932494759559631 1.234764179791625e-09
vn -0.1159977987408638 -0.9932494759559631 1.234790492077309e-09
vn -0.1159977987408638 -0.9932494759559631 1.234286117757222e-09
vn -0.1159977987408638 -0.9932494759559631 1.234764179791625e-09
vn -0.1159977987408638 -0.9932494759559631 1.234511937120431e-09
vn -0.9932745099067688 0.1157833337783814 5.328462687357802e-14
vn -0.9932745099067688 0.1157833337783814 1.059367911861002e-13
vn -0.9932745099067688 0.1157833337783814 -1.462337602354744e-13
vn -0.9932745099067688 0.1157833337783814 7.961070902983911e-14
f 5/5/5 2/2/2 1/1/1 4/4/4
f 6/6/6 3/3/3 2/2/2 5/5/5
f 8/8/8 5/5/5 4/4/4 7/7/7
f 9/9/9 6/6/6 5/5/5 8/8/8
f 1/1/1 10/10/10 11/11/11
f 11/11/11 4/4/4 1/1/1
f 4/4/4 11/11/11 12/12/12
f 2/2/2 10/10/10 1/1/1
f 3/3/3 16/16/16 17/17/17
f 17/17/17 2/2/2 3/3/3
f 2/2/2 17/17/17 10/10/10
f 6/6/6 16/16/16 3/3/3
f 13/13/13 7/7/7 12/12/12
f 4/4/4 12/12/12 7/7/7
f 7/7/7 13/13/13 18/18/18
f 8/8/8 7/7/7 18/18/18
f 15/15/15 9/9/9 14/14/14
f 18/18/18 9/9/9 8/8/8
f 6/6/6 9/9/9 15/15/15
f 9/9/9 18/18/18 14/14/14
f 16/16/16 6/6/6 15/15/15
f 23/23/23 20/20/20 19/19/19 22/22/22
f 24/24/24 21/21/21 20/20/20 23/23/23
f 26/26/26 23/23/23 22/22/22 25/25/25
f 27/27/27 24/24/24 23/23/23 26/26/26
f 19/19/19 33/33/33 28/28/28
f 28/28/28 29/29/29 19/19/19
f 22/22/22 19/19/19 29/29/29
f 20/20/20 33/33/33 19/19/19
f 21/21/21 36/36/36 32/32/32
f 33/33/33 21/21/21 32/32/32
f 21/21/21 33/33/33 20/20/20
f 24/24/24 36/36/36 21/21/21
f 30/30/30 25/25/25 22/22/22
f 25/25/25 30/30/30 31/31/31
f 30/30/30 22/22/22 29/29/29
f 26/26/26 25/25/25 31/31/31
f 35/35/35 27/27/27 34/34/34
f 26/26/26 34/34/34 27/27/27
f 24/24/24 27/27/27 35/35/35
f 34/34/34 26/26/26 31/31/31
f 36/36/36 24/24/24 35/35/35
f 38/38/38 42/42/42 41/41/41 37/37/37
f 40/40/40 44/44/44 43/43/43 39/39/39
f 39/39/39 43/43/43 42/42/42 38/38/38
f 46/46/46 49/49/49 48/48/48 45/45/45
f 47/47/47 50/50/50 49/49/49 46/46/46
f 52/52/52 56/56/56 55/55/55 51/51/51
f 54/54/54 58/58/58 57/57/57 53/53/53
f 53/53/53 57/57/57 56/56/56 52/52/52
f 60/60/60 62/62/62 61/61/61 59/59/59
