# Rhino

g object_1
v 43.64693450927734 43.74875640869141 8.5625
v 43.64693450927734 44.00185775756836 8.5625
v 49.64693450927734 43.74875640869141 8.284031867980957
v 46.64693450927734 43.74875640869141 8.423266410827637
v 49.64693450927734 44.00183486938477 8.284031867980957
v 46.64693450927734 44.00184631347656 8.423266410827637
v 43.64693450927734 43.74875640869141 0
v 43.64693450927734 43.74875640869141 8.5625
v 43.64693450927734 44.00185775756836 0
v 43.64693450927734 44.00185775756836 8.5625
v 43.64693450927734 44.00185775756836 4.28125
v 43.64693450927734 43.74875640869141 4.28125
v 49.64693450927734 43.74875640869141 0
v 49.64693450927734 44.00185775756836 0
v 43.64693450927734 43.74875640869141 0
v 43.64693450927734 44.00185775756836 0
v 46.64693450927734 44.00185775756836 0
v 46.64693450927734 43.74875640869141 0
v 43.64693450927734 44.00185775756836 0
v 43.64693450927734 44.00185775756836 8.5625
v 49.64693450927734 44.00185775756836 0
v 49.64693450927734 44.00183486938477 8.284031867980957
v 46.64693450927734 44.00184631347656 8.423266410827637
v 43.64693450927734 44.00185775756836 4.28125
v 46.64693450927734 44.00185775756836 0
v 49.64693450927734 44.00184631347656 4.142015933990479
v 49.64693450927734 44.00185775756836 0
v 49.64693450927734 44.00183486938477 8.284031867980957
v 49.64693450927734 43.74875640869141 0
v 49.64693450927734 43.74875640869141 8.284031867980957
v 49.64693450927734 44.00184631347656 4.142015933990479
v 49.64693450927734 43.74875640869141 4.142015933990479
v 49.64693450927734 43.74875640869141 0
v 43.64693450927734 43.74875640869141 0
v 43.64693450927734 43.74875640869141 8.5625
v 46.64693450927734 43.74875640869141 8.423266410827637
v 49.64693450927734 43.74875640869141 8.284031867980957
v 43.64693450927734 43.74875640869141 4.28125
v 49.64693450927734 43.74875640869141 4.142015933990479
v 46.64693450927734 43.74875640869141 0
vt 0.04071899130940437 0.50554358959198
vt 0.02109191752970219 0.50554358959198
vt 0.04071897640824318 0.005005382467061281
vt 0.04071898385882378 0.2552744746208191
vt 0.02109362371265888 0.005005382467061281
vt 0.02109277062118053 0.2552744746208191
vt 0.06327575445175171 0
vt 0.06327575445175171 0.7135416865348816
vt 0.08290282636880875 0
vt 0.08290282636880875 0.7135416865348816
vt 0.08290282636880875 0.3567708432674408
vt 0.06327575445175171 0.3567708432674408
vt 0.01962707377970219 0
vt 0 0
vt 0.01962707377970219 0.5
vt 0 0.5
vt 0 0.25
vt 0.01962707377970219 0.25
vt 0.7964444756507874 0.5
vt 0.08436767011880875 0.5
vt 0.7964444756507874 0.99853515625
vt 0.1075256839394569 0.99853515625
vt 0.09594669938087463 0.749267578125
vt 0.440406084060669 0.5
vt 0.7964444756507874 0.749267578125
vt 0.451985090970993 0.99853515625
vt 0.04218383505940437 0
vt 0.04218383505940437 0.6903359889984131
vt 0.06181091070175171 0
vt 0.06181091070175171 0.6903359889984131
vt 0.04218383505940437 0.3451679944992065
vt 0.06181091070175171 0.3451679944992065
vt 0.7964444756507874 0
vt 0.7964444756507874 0.49853515625
vt 0.08436767011880875 0.49853515625
vt 0.09594669938087463 0.249267578125
vt 0.1075256839394569 0
vt 0.440406084060669 0.49853515625
vt 0.451985090970993 0
vt 0.7964444756507874 0.249267578125
vn 0.04636140540242195 0 0.998924732208252
vn 0.04636140540242195 0 0.998924732208252
vn 0.04636140540242195 0 0.998924732208252
vn 0.04636140540242195 0 0.998924732208252
vn 0.04636140540242195 0 0.998924732208252
vn 0.04636140540242195 0 0.998924732208252
vn -1 0 0
vn -1 0 0
vn -1 0 0
vn -1 0 0
vn -1 0 0
vn -1 0 0
vn 0 0 -1
vn 0 0 -1
vn 0 0 -1
vn 0 0 -1
vn 0 0 -1
vn 0 0 -1
vn 0 1 0
vn 0 1 0
vn 0 1 0
vn 0 1 0
vn 0 1 0
vn 0 1 0
vn 0 1 0
vn 4.190362781411058e-16 1 0
vn 1 0 0
vn 1 0 0
vn 1 0 0
vn 1 0 0
vn 1 0 0
vn 1 1.4210854715202e-14 0
vn 0 -1 0
vn 0 -1 0
vn 0 -1 0
vn 0 -1 0
vn 0 -1 0
vn 0 -1 0
vn 0 -1 0
vn 0 -1 0
f 5/5/5 4/4/4 3/3/3
f 6/6/6 4/4/4 5/5/5
f 2/2/2 1/1/1 6/6/6
f 4/4/4 6/6/6 1/1/1
f 12/12/12 11/11/11 9/9/9 7/7/7
f 8/8/8 10/10/10 11/11/11 12/12/12
f 17/17/17 14/14/14 13/13/13 18/18/18
f 18/18/18 15/15/15 16/16/16 17/17/17
f 25/25/25 24/24/24 23/23/23
f 24/24/24 20/20/20 23/23/23
f 25/25/25 19/19/19 24/24/24
f 26/26/26 21/21/21 25/25/25
f 26/26/26 23/23/23 22/22/22
f 25/25/25 23/23/23 26/26/26
f 31/31/31 32/32/32 29/29/29 27/27/27
f 28/28/28 30/30/30 32/32/32 31/31/31
f 40/40/40 39/39/39 36/36/36
f 39/39/39 37/37/37 36/36/36
f 40/40/40 33/33/33 39/39/39
f 38/38/38 34/34/34 40/40/40
f 38/38/38 36/36/36 35/35/35
f 40/40/40 36/36/36 38/38/38
g object_2
v 111.9474334716797 43.7487907409668 8.5625
v 111.9474334716797 44.00189590454102 8.5625
v 105.9474334716797 43.7487907409668 8.284031867980957
v 108.9474334716797 43.7487907409668 8.423266410827637
v 105.9474334716797 44.00187301635742 8.284031867980957
v 108.9474334716797 44.00188446044922 8.423266410827637
v 111.9474334716797 43.7487907409668 -5.976819039688053e-11
v 111.9474334716797 43.7487907409668 8.5625
v 111.9474334716797 44.00189590454102 -5.976819039688053e-11
v 111.9474334716797 44.00189590454102 8.5625
v 111.9474334716797 44.00189590454102 4.28125
v 111.9474334716797 43.7487907409668 4.28125
v 105.9474334716797 43.7487907409668 -5.976819039688053e-11
v 105.9474334716797 44.00189590454102 -5.976819039688053e-11
v 111.9474334716797 43.7487907409668 -5.976819039688053e-11
v 111.9474334716797 44.00189590454102 -5.976819039688053e-11
v 108.9474334716797 44.00189590454102 -5.976819039688053e-11
v 108.9474334716797 43.7487907409668 -5.976819039688053e-11
v 111.9474334716797 44.00189590454102 -5.976819039688053e-11
v 111.9474334716797 44.00189590454102 8.5625
v 105.9474334716797 44.00189590454102 -5.976819039688053e-11
v 105.9474334716797 44.00187301635742 8.284031867980957
v 108.9474334716797 44.00188446044922 8.423266410827637
v 111.9474334716797 44.00189590454102 4.28125
v 108.9474334716797 44.00189590454102 -5.976819039688053e-11
v 105.9474334716797 44.00188446044922 4.142015933990479
v 105.9474334716797 44.00189590454102 -5.976819039688053e-11
v 105.9474334716797 44.00187301635742 8.284031867980957
v 105.9474334716797 43.7487907409668 -5.976819039688053e-11
v 105.9474334716797 43.7487907409668 8.284031867980957
v 105.9474334716797 44.00188446044922 4.142015933990479
v 105.9474334716797 43.7487907409668 4.142015933990479
v 105.9474334716797 43.7487907409668 -5.976819039688053e-11
v 111.9474334716797 43.7487907409668 -5.976819039688053e-11
v 111.9474334716797 43.7487907409668 8.5625
v 108.9474334716797 43.7487907409668 8.423266410827637
v 105.9474334716797 43.7487907409668 8.284031867980957
v 111.9474334716797 43.7487907409668 4.28125
v 105.9474334716797 43.7487907409668 4.142015933990479
v 108.9474334716797 43.7487907409668 -5.976819039688053e-11
vt 0.04071899130940437 0.50554358959198
vt 0.02109191752970219 0.50554358959198
vt 0.04071897640824318 0.005005382467061281
vt 0.04071898385882378 0.2552744746208191
vt 0.02109362371265888 0.005005382467061281
vt 0.02109277062118053 0.2552744746208191
vt 0.06327575445175171 0
vt 0.06327575445175171 0.7135416865348816
vt 0.08290282636880875 0
vt 0.08290282636880875 0.7135416865348816
vt 0.08290282636880875 0.3567708432674408
vt 0.06327575445175171 0.3567708432674408
vt 0.01962707377970219 0
vt 0 0
vt 0.01962707377970219 0.5
vt 0 0.5
vt 0 0.25
vt 0.01962707377970219 0.25
vt 0.7964444756507874 0.5
vt 0.08436767011880875 0.5
vt 0.7964444756507874 0.99853515625
vt 0.1075256839394569 0.99853515625
vt 0.09594669938087463 0.749267578125
vt 0.440406084060669 0.5
vt 0.7964444756507874 0.749267578125
vt 0.451985090970993 0.99853515625
vt 0.04218383505940437 0
vt 0.04218383505940437 0.6903359889984131
vt 0.06181091070175171 0
vt 0.06181091070175171 0.6903359889984131
vt 0.04218383505940437 0.3451679944992065
vt 0.06181091070175171 0.3451679944992065
vt 0.7964444756507874 0
vt 0.7964444756507874 0.49853515625
vt 0.08436767011880875 0.49853515625
vt 0.09594669938087463 0.249267578125
vt 0.1075256839394569 0
vt 0.440406084060669 0.49853515625
vt 0.451985090970993 0
vt 0.7964444756507874 0.249267578125
vn -0.04636140540242195 0 0.998924732208252
vn -0.04636140540242195 0 0.998924732208252
vn -0.04636140540242195 0 0.998924732208252
vn -0.04636140540242195 0 0.998924732208252
vn -0.04636140540242195 0 0.998924732208252
vn -0.04636140540242195 0 0.998924732208252
vn 1 0 0
vn 1 0 0
vn 1 0 0
vn 1 0 0
vn 1 0 0
vn 1 0 0
vn 0 0 -1
vn 0 0 -1
vn 0 0 -1
vn 0 0 -1
vn 0 0 -1
vn 0 0 -1
vn 0 1 0
vn 0 1 0
vn 0 1 0
vn 0 1 0
vn 0 1 0
vn 0 1 0
vn 0 1 0
vn 0 1 0
vn -1 0 0
vn -1 0 0
vn -1 0 0
vn -1 0 0
vn -1 0 0
vn -1 2.842170943040401e-14 0
vn 0 -1 0
vn 0 -1 0
vn 0 -1 0
vn 0 -1 0
vn 0 -1 0
vn 0 -1 0
vn 4.190362781411058e-16 -1 0
vn 0 -1 0
f 45/45/45 43/43/43 44/44/44
f 46/46/46 45/45/45 44/44/44
f 42/42/42 46/46/46 41/41/41
f 44/44/44 41/41/41 46/46/46
f 52/52/52 47/47/47 49/49/49 51/51/51
f 48/48/48 52/52/52 51/51/51 50/50/50
f 53/53/53 54/54/54 57/57/57 58/58/58
f 56/56/56 55/55/55 58/58/58 57/57/57
f 64/64/64 59/59/59 65/65/65
f 64/64/64 63/63/63 60/60/60
f 63/63/63 64/64/64 65/65/65
f 65/65/65 66/66/66 63/63/63
f 66/66/66 62/62/62 63/63/63
f 61/61/61 66/66/66 65/65/65
f 71/71/71 67/67/67 69/69/69 72/72/72
f 68/68/68 71/71/71 72/72/72 70/70/70
f 80/80/80 76/76/76 79/79/79
f 79/79/79 76/76/76 77/77/77
f 80/80/80 79/79/79 73/73/73
f 78/78/78 80/80/80 74/74/74
f 78/78/78 75/75/75 76/76/76
f 80/80/80 78/78/78 76/76/76
g object_3
v 40.75090026855469 104.9199066162109 0
v 40.75090026855469 104.9199066162109 7
v 41.38631820678711 104.9199066162109 0
v 41.38631820678711 104.9199066162109 7
v 41.38631820678711 104.9199066162109 0
v 41.38631820678711 104.9199066162109 7
v 41.38631820678711 107.9199066162109 0
v 41.38631820678711 107.9199066162109 7
v 41.38631820678711 107.9199066162109 0
v 41.38631820678711 107.9199066162109 7
v 40.75090026855469 107.9199066162109 0
v 40.75090026855469 107.9199066162109 7
v 40.75090026855469 107.9199066162109 0
v 40.75090026855469 107.9199066162109 7
v 40.75090026855469 104.9199066162109 0
v 40.75090026855469 104.9199066162109 7
v 40.75090026855469 104.9199066162109 0
v 41.38631820678711 104.9199066162109 0
v 41.38631820678711 107.9199066162109 0
v 40.75090026855469 107.9199066162109 0
v 40.75090026855469 104.9199066162109 7
v 41.38631820678711 104.9199066162109 7
v 41.38631820678711 107.9199066162109 7
v 40.75090026855469 107.9199066162109 7
vt 0 0
vt 0 0.9231729507446289
vt 0.06097551435232163 0
vt 0.06097551435232163 0.9231729507446289
vt 0.06097551435232163 0
vt 0.06097551435232163 0.9231729507446289
vt 0.5 0
vt 0.5 0.9231729507446289
vt 0.5 0
vt 0.5 0.9231729507446289
vt 0.5609754920005798 0
vt 0.5609754920005798 0.9231729507446289
vt 0.5609754920005798 0
vt 0.5609754920005798 0.9231729507446289
vt 1 0
vt 1 0.9231729507446289
vt 0.4126075804233551 1
vt 0.4126075804233551 0.9231739044189453
vt 0 0.9231739044189453
vt 0 1
vt 1 0.9231739044189453
vt 1 1
vt 0.5873924493789673 1
vt 0.5873924493789673 0.9231739044189453
vn 0 -1 0
vn 0 -1 0
vn 0 -1 0
vn 0 -1 0
vn 1 0 0
vn 1 0 0
vn 1 0 0
vn 1 0 0
vn 0 1 0
vn 0 1 0
vn 0 1 0
vn 0 1 0
vn -1 0 0
vn -1 0 0
vn -1 0 0
vn -1 0 0
vn 0 0 -1
vn 0 0 -1
vn 0 0 -1
vn 0 0 -1
vn 0 0 1
vn 0 0 1
vn 0 0 1
vn 0 0 1
f 81/81/81 83/83/83 84/84/84 82/82/82
f 85/85/85 87/87/87 88/88/88 86/86/86
f 89/89/89 91/91/91 92/92/92 90/90/90
f 93/93/93 95/95/95 96/96/96 94/94/94
f 98/98/98 97/97/97 100/100/100
f 100/100/100 99/99/99 98/98/98
f 102/102/102 104/104/104 101/101/101
f 104/104/104 102/102/102 103/103/103
g object_4
v 48.0145263671875 123.6894912719727 1.76272516548559e-12
v 48.0145263671875 123.6894912719727 7
v 48.64994430541992 123.6894912719727 1.76272516548559e-12
v 48.64994430541992 123.6894912719727 7
v 48.64994430541992 123.6894912719727 1.76272516548559e-12
v 48.64994430541992 123.6894912719727 7
v 48.64994430541992 126.6894912719727 1.76272516548559e-12
v 48.64994430541992 126.6894912719727 7
v 48.64994430541992 126.6894912719727 1.76272516548559e-12
v 48.64994430541992 126.6894912719727 7
v 48.0145263671875 126.6894912719727 1.76272516548559e-12
v 48.0145263671875 126.6894912719727 7
v 48.0145263671875 126.6894912719727 1.76272516548559e-12
v 48.0145263671875 126.6894912719727 7
v 48.0145263671875 123.6894912719727 1.76272516548559e-12
v 48.0145263671875 123.6894912719727 7
v 48.0145263671875 123.6894912719727 1.76272516548559e-12
v 48.64994430541992 123.6894912719727 1.76272516548559e-12
v 48.64994430541992 126.6894912719727 1.76272516548559e-12
v 48.0145263671875 126.6894912719727 1.76272516548559e-12
v 48.0145263671875 123.6894912719727 7
v 48.64994430541992 123.6894912719727 7
v 48.64994430541992 126.6894912719727 7
v 48.0145263671875 126.6894912719727 7
vt 0 0
vt 0 0.9231729507446289
vt 0.06097561120986939 0
vt 0.06097561120986939 0.9231729507446289
vt 0.06097561120986939 0
vt 0.06097561120986939 0.9231729507446289
vt 0.5 0
vt 0.5 0.9231729507446289
vt 0.5 0
vt 0.5 0.9231729507446289
vt 0.5609756112098694 0
vt 0.5609756112098694 0.9231729507446289
vt 0.5609756112098694 0
vt 0.5609756112098694 0.9231729507446289
vt 1 0
vt 1 0.9231729507446289
vt 0.4126074612140656 1
vt 0.4126074612140656 0.9231738448143005
vt 0 0.9231738448143005
vt 0 1
vt 1 0.9231738448143005
vt 1 1
vt 0.5873925685882568 1
vt 0.5873925685882568 0.9231738448143005
vn 0 -1 0
vn 0 -1 0
vn 0 -1 0
vn 0 -1 0
vn 1 0 0
vn 1 0 0
vn 1 0 0
vn 1 0 0
vn 0 1 0
vn 0 1 0
vn 0 1 0
vn 0 1 0
vn -1 0 0
vn -1 0 0
vn -1 0 0
vn -1 0 0
vn 0 0 -1
vn 0 0 -1
vn 0 0 -1
vn 0 0 -1
vn 0 0 1
vn 0 0 1
vn 0 0 1
vn 0 0 1
f 105/105/105 107/107/107 108/108/108 106/106/106
f 109/109/109 111/111/111 112/112/112 110/110/110
f 113/113/113 115/115/115 116/116/116 114/114/114
f 117/117/117 119/119/119 120/120/120 118/118/118
f 122/122/122 121/121/121 124/124/124
f 124/124/124 123/123/123 122/122/122
f 126/126/126 128/128/128 125/125/125
f 128/128/128 126/126/126 127/127/127
g object_5
v 121.0303115844727 114.8143005371094 0
v 121.0303115844727 114.8143005371094 6.999961376190186
v 133.4459228515625 113.3642272949219 2.405586146947414e-12
v 133.4459228515625 113.3642272949219 6.999961376190186
v 133.4459228515625 113.3642272949219 2.405586146947414e-12
v 133.4459228515625 113.3642272949219 6.999961376190186
v 133.4749145507813 113.6125411987305 1.374961949851539e-11
v 133.4749145507813 113.6125411987305 6.999961376190186
v 133.4749145507813 113.6125411987305 1.374961949851539e-11
v 133.4749145507813 113.6125411987305 6.999961376190186
v 121.0593109130859 115.062614440918 1.134403335156797e-11
v 121.0593109130859 115.062614440918 6.999961376190186
v 121.0593109130859 115.062614440918 1.134403335156797e-11
v 121.0593109130859 115.062614440918 6.999961376190186
v 121.0303115844727 114.8143005371094 0
v 121.0303115844727 114.8143005371094 6.999961376190186
v 121.0303115844727 114.8143005371094 0
v 133.4459228515625 113.3642272949219 2.405586146947414e-12
v 133.4749145507813 113.6125411987305 1.374961949851539e-11
v 121.0593109130859 115.062614440918 1.134403335156797e-11
v 121.0303115844727 114.8143005371094 6.999961376190186
v 133.4459228515625 113.3642272949219 6.999961376190186
v 133.4749145507813 113.6125411987305 6.999961376190186
v 121.0593109130859 115.062614440918 6.999961376190186
vt 0 0
vt 0 0.9666654467582703
vt 0.4901960492134094 0
vt 0.4901960492134094 0.9666654467582703
vt 0.4901960492134094 0
vt 0.4901960492134094 0.9666654467582703
vt 0.5 0
vt 0.5 0.9666654467582703
vt 0.5 0
vt 0.5 0.9666654467582703
vt 0.9901960492134094 0
vt 0.9901960492134094 0.9666654467582703
vt 0.9901960492134094 0
vt 0.9901960492134094 0.9666654467582703
vt 1 0
vt 1 0.9666654467582703
vt 0.4901960492134094 0.9666664004325867
vt 0 0.9666664004325867
vt 0 1
vt 0.4901960492134094 1
vt 1 1
vt 0.5098039507865906 1
vt 0.5098039507865906 0.9666664004325867
vt 1 0.9666664004325867
vn -0.1160062849521637 -0.993248462677002 -4.537530420845037e-11
vn -0.1160062849521637 -0.993248462677002 -4.537530420845037e-11
vn -0.1160062849521637 -0.993248462677002 -4.537530420845037e-11
vn -0.1160062849521637 -0.993248462677002 -4.537530420845037e-11
vn 0.993248462677002 -0.1160062849521637 1.924468885031866e-13
vn 0.993248462677002 -0.1160062849521637 1.924468885031866e-13
vn 0.993248462677002 -0.1160062849521637 1.924468885031866e-13
vn 0.993248462677002 -0.1160062849521637 1.924468885031866e-13
vn 0.1160062849521637 0.993248462677002 4.537530420845037e-11
vn 0.1160062849521637 0.993248462677002 4.537530420845037e-11
vn 0.1160062849521637 0.993248462677002 4.537530420845037e-11
vn 0.1160062849521637 0.993248462677002 4.537530420845037e-11
vn -0.9932485818862915 0.1160053387284279 -1.924902023799774e-13
vn -0.9932485818862915 0.1160053387284279 -1.924902023799774e-13
vn -0.9932485818862915 0.1160053387284279 -1.924902023799774e-13
vn -0.9932485818862915 0.1160053387284279 -1.924902023799774e-13
vn 5.454968074469768e-12 4.504662615145705e-11 -1
vn 5.454968074469768e-12 4.504662615145705e-11 -1
vn 5.454968074469768e-12 4.504662615145705e-11 -1
vn 5.454968074469768e-12 4.504662615145705e-11 -1
vn -5.454968074469768e-12 -4.504662615145705e-11 1
vn -5.454968074469768e-12 -4.504662615145705e-11 1
vn -5.454968074469768e-12 -4.504662615145705e-11 1
vn -5.454968074469768e-12 -4.504662615145705e-11 1
f 129/129/129 131/131/131 132/132/132 130/130/130
f 133/133/133 135/135/135 136/136/136 134/134/134
f 137/137/137 139/139/139 140/140/140 138/138/138
f 141/141/141 143/143/143 144/144/144 142/142/142
f 145/145/145 147/147/147 146/146/146
f 147/147/147 145/145/145 148/148/148
f 149/149/149 150/150/150 151/151/151
f 151/151/151 152/152/152 149/149/149
g object_6
v 140.8924713134766 111.0431976318359 0.3333333432674408
v 140.9658966064453 111.6743545532227 0.3333333432674408
v 140.8924713134766 111.0431976318359 7.333333492279053
v 140.9658966064453 111.6743545532227 7.333333492279053
v 140.8924713134766 111.0431976318359 7.333333492279053
v 140.9658966064453 111.6743545532227 7.333333492279053
v 143.8723754882813 110.6965484619141 7.333333492279053
v 143.94580078125 111.3277053833008 7.333333492279053
v 143.8723754882813 110.6965484619141 7.333333492279053
v 143.94580078125 111.3277053833008 7.333333492279053
v 143.8723754882813 110.6965484619141 0.3333333432674408
v 143.94580078125 111.3277053833008 0.3333333432674408
v 143.8723754882813 110.6965484619141 0.3333333432674408
v 143.94580078125 111.3277053833008 0.3333333432674408
v 140.8924713134766 111.0431976318359 0.3333333432674408
v 140.9658966064453 111.6743545532227 0.3333333432674408
v 140.8924713134766 111.0431976318359 0.3333333432674408
v 140.8924713134766 111.0431976318359 7.333333492279053
v 143.8723754882813 110.6965484619141 7.333333492279053
v 143.8723754882813 110.6965484619141 0.3333333432674408
v 140.9658966064453 111.6743545532227 0.3333333432674408
v 140.9658966064453 111.6743545532227 7.333333492279053
v 143.94580078125 111.3277053833008 7.333333492279053
v 143.94580078125 111.3277053833008 0.3333333432674408
vt 0 0
vt 0 0.5478804111480713
vt 0.3499999940395355 0
vt 0.3499999940395355 0.5478804111480713
vt 0.3499999940395355 0
vt 0.3499999940395355 0.5478804111480713
vt 0.5 0
vt 0.5 0.5478804111480713
vt 0.5 0
vt 0.5 0.5478804111480713
vt 0.8500000238418579 0
vt 0.8500000238418579 0.5478804111480713
vt 0.8500000238418579 0
vt 0.8500000238418579 0.5478804111480713
vt 1 0
vt 1 0.5478804111480713
vt 0.3499999940395355 0.5478809475898743
vt 4.578381944397858e-12 0.5478809475898743
vt 0 1
vt 0.3499999940395355 1
vt 1 1
vt 0.6499999761581421 1
vt 0.6499999761581421 0.5478809475898743
vt 1 0.5478809475898743
vn -0.9933016300201416 0.1155501306056976 0
vn -0.9933016300201416 0.1155501306056976 0
vn -0.9933016300201416 0.1155501306056976 0
vn -0.9933016300201416 0.1155501306056976 0
vn -3.031809525655405e-11 3.52688429676451e-12 1
vn -3.031809525655405e-11 3.52688429676451e-12 1
vn -3.031809525655405e-11 3.52688429676451e-12 1
vn -3.031809525655405e-11 3.52688429676451e-12 1
vn 0.9933016300201416 -0.1155501306056976 0
vn 0.9933016300201416 -0.1155501306056976 0
vn 0.9933016300201416 -0.1155501306056976 0
vn 0.9933016300201416 -0.1155501306056976 0
vn 0 0 -1
vn 0 0 -1
vn 0 0 -1
vn 0 0 -1
vn -0.1155501306056976 -0.9933016300201416 0
vn -0.1155501306056976 -0.9933016300201416 0
vn -0.1155501306056976 -0.9933016300201416 0
vn -0.1155501306056976 -0.9933016300201416 0
vn 0.1155501306056976 0.9933016300201416 0
vn 0.1155501306056976 0.9933016300201416 0
vn 0.1155501306056976 0.9933016300201416 0
vn 0.1155501306056976 0.9933016300201416 0
f 153/153/153 155/155/155 156/156/156 154/154/154
f 157/157/157 159/159/159 160/160/160 158/158/158
f 161/161/161 163/163/163 164/164/164 162/162/162
f 165/165/165 167/167/167 168/168/168 166/166/166
f 170/170/170 172/172/172 171/171/171
f 172/172/172 170/170/170 169/169/169
f 174/174/174 175/175/175 176/176/176
f 176/176/176 173/173/173 174/174/174
